<svg width="450" height="408" viewBox="0 0 450 408" fill="none" xmlns="http://www.w3.org/2000/svg">
    <path
        d="M446.809 153.562C465.97 75.4988 395.631 16.0576 321.488 41.7903C315.126 36.8727 311.575 30.2246 305.412 24.791C260.455 -14.8454 188.058 -5.74114 154.461 43.4403C112.916 26.4947 63.3602 46.4768 47.5151 88.736C45.167 95.0026 43.0823 111.9 41.6584 114.291C40.9223 115.522 31.8364 119.897 29.1177 122.17C-19.788 163.107 -4.30283 234.641 54.7687 254.29C52.4368 295.286 59.7281 335.761 79.2968 371.915L102.084 407.999C102.084 371.033 103.411 330.118 126.639 299.747C153.778 315.913 185.581 319.708 215.574 308.668C221.925 306.331 238.092 295.318 241.203 294.894C245.722 294.276 262.196 301.784 269.509 302.601C284.183 304.235 301.779 302.364 315.637 297.237C320.198 295.549 331.718 287.783 334.007 287.386C335.05 287.203 349.589 292.647 354.339 293.153C406.99 298.742 450.2 255.999 441.135 203.195C440.109 197.208 434.435 185.191 434.999 181.16C435.547 177.237 444.816 161.699 446.815 153.562H446.809Z"
        fill="#FFF5E7" />
</svg>