<svg width="388" height="240" viewBox="0 0 388 240" fill="none" xmlns="http://www.w3.org/2000/svg">
  <rect x="1" y="0.5" width="386" height="239" rx="15.5" fill="#FFF6F7" />
  <rect x="1" y="0.5" width="386" height="239" rx="15.5" stroke="#FF7DBE" />
  <mask id="mask0_65_8804" style="mask-type:luminance" maskUnits="userSpaceOnUse" x="63" y="69"
    width="52" height="52">
    <rect x="63" y="69" width="52" height="52" fill="white" />
  </mask>
  <g mask="url(#mask0_65_8804)">
    <path fill-rule="evenodd" clip-rule="evenodd"
      d="M89 69C74.6406 69 63 80.6406 63 95C63 109.359 74.6406 121 89 121C103.359 121 115 109.359 115 95C115 80.6406 103.359 69 89 69Z"
      fill="#E31D1C" />
  </g>
  <mask id="mask1_65_8804" style="mask-type:luminance" maskUnits="userSpaceOnUse" x="63" y="69"
    width="52" height="52">
    <path fill-rule="evenodd" clip-rule="evenodd" d="M63 69V121H115V69H63Z" fill="white" />
  </mask>
  <g mask="url(#mask1_65_8804)">
    <path fill-rule="evenodd" clip-rule="evenodd"
      d="M93.25 82H84.625V90.6667H76V99.3333H84.625V108H93.25V99.3333H101.875V90.6667H93.25V82Z"
      fill="#F1F9FF" />
  </g>
  <path
    d="M49.9806 149.168C49.1966 149.168 48.4453 149.065 47.7266 148.86C47.008 148.645 46.4293 148.37 45.9906 148.034L46.7606 146.326C47.1806 146.625 47.6753 146.872 48.2446 147.068C48.8233 147.255 49.4066 147.348 49.9946 147.348C50.4426 147.348 50.802 147.306 51.0726 147.222C51.3526 147.129 51.558 147.003 51.6886 146.844C51.8193 146.685 51.8846 146.503 51.8846 146.298C51.8846 146.037 51.782 145.831 51.5766 145.682C51.3713 145.523 51.1006 145.397 50.7646 145.304C50.4286 145.201 50.0553 145.108 49.6446 145.024C49.2433 144.931 48.8373 144.819 48.4266 144.688C48.0253 144.557 47.6566 144.389 47.3206 144.184C46.9846 143.979 46.7093 143.708 46.4946 143.372C46.2893 143.036 46.1866 142.607 46.1866 142.084C46.1866 141.524 46.336 141.015 46.6346 140.558C46.9426 140.091 47.4 139.723 48.0066 139.452C48.6226 139.172 49.3926 139.032 50.3166 139.032C50.9326 139.032 51.5393 139.107 52.1366 139.256C52.734 139.396 53.2613 139.611 53.7186 139.9L53.0186 141.622C52.5613 141.361 52.104 141.169 51.6466 141.048C51.1893 140.917 50.7413 140.852 50.3026 140.852C49.864 140.852 49.5046 140.903 49.2246 141.006C48.9446 141.109 48.744 141.244 48.6226 141.412C48.5013 141.571 48.4406 141.757 48.4406 141.972C48.4406 142.224 48.5433 142.429 48.7486 142.588C48.954 142.737 49.2246 142.859 49.5606 142.952C49.8966 143.045 50.2653 143.139 50.6666 143.232C51.0773 143.325 51.4833 143.433 51.8846 143.554C52.2953 143.675 52.6686 143.839 53.0046 144.044C53.3406 144.249 53.6113 144.52 53.8166 144.856C54.0313 145.192 54.1386 145.617 54.1386 146.13C54.1386 146.681 53.9846 147.185 53.6766 147.642C53.3686 148.099 52.9066 148.468 52.2906 148.748C51.684 149.028 50.914 149.168 49.9806 149.168ZM57.1196 149L54.4036 141.468H56.4616L58.7156 147.95H57.7356L60.0876 141.468H61.9356L64.2176 147.95H63.2376L65.5616 141.468H67.4936L64.7636 149H62.6496L60.6476 143.442H61.2916L59.2196 149H57.1196ZM68.509 149V141.468H70.693V149H68.509ZM69.601 140.418C69.1996 140.418 68.873 140.301 68.621 140.068C68.369 139.835 68.243 139.545 68.243 139.2C68.243 138.855 68.369 138.565 68.621 138.332C68.873 138.099 69.1996 137.982 69.601 137.982C70.0023 137.982 70.329 138.094 70.581 138.318C70.833 138.533 70.959 138.813 70.959 139.158C70.959 139.522 70.833 139.825 70.581 140.068C70.3383 140.301 70.0116 140.418 69.601 140.418ZM75.7999 149.112C74.9132 149.112 74.2226 148.888 73.7279 148.44C73.2332 147.983 72.9859 147.306 72.9859 146.41V139.802H75.1699V146.382C75.1699 146.699 75.2539 146.947 75.4219 147.124C75.5899 147.292 75.8186 147.376 76.1079 147.376C76.4532 147.376 76.7472 147.283 76.9899 147.096L77.5779 148.636C77.3539 148.795 77.0832 148.916 76.7659 149C76.4579 149.075 76.1359 149.112 75.7999 149.112ZM71.8239 143.316V141.636H77.0459V143.316H71.8239ZM78.2859 149V147.684L82.7379 142.42L83.1159 143.148H78.3839V141.468H84.8799V142.784L80.4279 148.048L80.0359 147.32H85.0059V149H78.2859ZM90.0478 149.112C89.1891 149.112 88.4331 148.944 87.7798 148.608C87.1358 148.272 86.6364 147.815 86.2818 147.236C85.9271 146.648 85.7498 145.981 85.7498 145.234C85.7498 144.478 85.9224 143.811 86.2678 143.232C86.6224 142.644 87.1031 142.187 87.7098 141.86C88.3164 141.524 89.0024 141.356 89.7678 141.356C90.5051 141.356 91.1678 141.515 91.7558 141.832C92.3531 142.14 92.8244 142.588 93.1698 143.176C93.5151 143.755 93.6878 144.45 93.6878 145.262C93.6878 145.346 93.6831 145.444 93.6738 145.556C93.6644 145.659 93.6551 145.757 93.6458 145.85H87.5278V144.576H92.4978L91.6578 144.954C91.6578 144.562 91.5784 144.221 91.4198 143.932C91.2611 143.643 91.0418 143.419 90.7618 143.26C90.4818 143.092 90.1551 143.008 89.7818 143.008C89.4084 143.008 89.0771 143.092 88.7878 143.26C88.5078 143.419 88.2884 143.647 88.1298 143.946C87.9711 144.235 87.8918 144.581 87.8918 144.982V145.318C87.8918 145.729 87.9804 146.093 88.1578 146.41C88.3444 146.718 88.6011 146.956 88.9278 147.124C89.2638 147.283 89.6558 147.362 90.1038 147.362C90.5051 147.362 90.8551 147.301 91.1538 147.18C91.4618 147.059 91.7418 146.877 91.9938 146.634L93.1558 147.894C92.8104 148.286 92.3764 148.589 91.8538 148.804C91.3311 149.009 90.7291 149.112 90.0478 149.112ZM95.1418 149V141.468H97.2278V143.596L96.9338 142.98C97.1578 142.448 97.5171 142.047 98.0118 141.776C98.5065 141.496 99.1085 141.356 99.8178 141.356V143.372C99.7245 143.363 99.6405 143.358 99.5658 143.358C99.4911 143.349 99.4118 143.344 99.3278 143.344C98.7305 143.344 98.2451 143.517 97.8718 143.862C97.5078 144.198 97.3258 144.725 97.3258 145.444V149H95.1418ZM101.13 149V138.612H103.314V149H101.13ZM109.961 149V147.53L109.821 147.208V144.576C109.821 144.109 109.676 143.745 109.387 143.484C109.107 143.223 108.673 143.092 108.085 143.092C107.684 143.092 107.287 143.157 106.895 143.288C106.512 143.409 106.186 143.577 105.915 143.792L105.131 142.266C105.542 141.977 106.036 141.753 106.615 141.594C107.194 141.435 107.782 141.356 108.379 141.356C109.527 141.356 110.418 141.627 111.053 142.168C111.688 142.709 112.005 143.554 112.005 144.702V149H109.961ZM107.665 149.112C107.077 149.112 106.573 149.014 106.153 148.818C105.733 148.613 105.411 148.337 105.187 147.992C104.963 147.647 104.851 147.259 104.851 146.83C104.851 146.382 104.958 145.99 105.173 145.654C105.397 145.318 105.747 145.057 106.223 144.87C106.699 144.674 107.32 144.576 108.085 144.576H110.087V145.85H108.323C107.81 145.85 107.455 145.934 107.259 146.102C107.072 146.27 106.979 146.48 106.979 146.732C106.979 147.012 107.086 147.236 107.301 147.404C107.525 147.563 107.828 147.642 108.211 147.642C108.575 147.642 108.902 147.558 109.191 147.39C109.48 147.213 109.69 146.956 109.821 146.62L110.157 147.628C109.998 148.113 109.709 148.482 109.289 148.734C108.869 148.986 108.328 149.112 107.665 149.112ZM118.56 141.356C119.157 141.356 119.689 141.477 120.156 141.72C120.632 141.953 121.005 142.317 121.276 142.812C121.546 143.297 121.682 143.923 121.682 144.688V149H119.498V145.024C119.498 144.417 119.362 143.969 119.092 143.68C118.83 143.391 118.457 143.246 117.972 143.246C117.626 143.246 117.314 143.321 117.034 143.47C116.763 143.61 116.548 143.829 116.39 144.128C116.24 144.427 116.166 144.809 116.166 145.276V149H113.982V141.468H116.068V143.554L115.676 142.924C115.946 142.42 116.334 142.033 116.838 141.762C117.342 141.491 117.916 141.356 118.56 141.356ZM126.95 149.112C126.241 149.112 125.601 148.953 125.032 148.636C124.463 148.309 124.01 147.857 123.674 147.278C123.347 146.699 123.184 146.018 123.184 145.234C123.184 144.441 123.347 143.755 123.674 143.176C124.01 142.597 124.463 142.149 125.032 141.832C125.601 141.515 126.241 141.356 126.95 141.356C127.585 141.356 128.14 141.496 128.616 141.776C129.092 142.056 129.461 142.481 129.722 143.05C129.983 143.619 130.114 144.347 130.114 145.234C130.114 146.111 129.988 146.839 129.736 147.418C129.484 147.987 129.12 148.412 128.644 148.692C128.177 148.972 127.613 149.112 126.95 149.112ZM127.328 147.32C127.683 147.32 128.005 147.236 128.294 147.068C128.583 146.9 128.812 146.662 128.98 146.354C129.157 146.037 129.246 145.663 129.246 145.234C129.246 144.795 129.157 144.422 128.98 144.114C128.812 143.806 128.583 143.568 128.294 143.4C128.005 143.232 127.683 143.148 127.328 143.148C126.964 143.148 126.637 143.232 126.348 143.4C126.059 143.568 125.825 143.806 125.648 144.114C125.48 144.422 125.396 144.795 125.396 145.234C125.396 145.663 125.48 146.037 125.648 146.354C125.825 146.662 126.059 146.9 126.348 147.068C126.637 147.236 126.964 147.32 127.328 147.32ZM129.302 149V147.46L129.344 145.22L129.204 142.994V138.612H131.388V149H129.302Z"
    fill="#37072A" />
  <g clip-path="url(#clip0_65_8804)">
    <mask id="mask2_65_8804" style="mask-type:luminance" maskUnits="userSpaceOnUse" x="291" y="69"
      width="53" height="52">
      <rect x="291.5" y="69" width="52" height="52" fill="white" />
    </mask>
    <g mask="url(#mask2_65_8804)">
      <path fill-rule="evenodd" clip-rule="evenodd" d="M327.25 69H343.5V121H327.25V69Z"
        fill="#F50100" />
      <path fill-rule="evenodd" clip-rule="evenodd" d="M291.5 69H311V121H291.5V69Z" fill="#2E42A5" />
      <path fill-rule="evenodd" clip-rule="evenodd" d="M307.75 69H327.25V121H307.75V69Z"
        fill="#F7FCFF" />
    </g>
  </g>
  <path
    d="M295.927 143.61H300.631V145.43H295.927V143.61ZM296.095 149H293.827V139.2H301.233V141.02H296.095V149ZM302.478 149V141.468H304.564V143.596L304.27 142.98C304.494 142.448 304.853 142.047 305.348 141.776C305.842 141.496 306.444 141.356 307.154 141.356V143.372C307.06 143.363 306.976 143.358 306.902 143.358C306.827 143.349 306.748 143.344 306.664 143.344C306.066 143.344 305.581 143.517 305.208 143.862C304.844 144.198 304.662 144.725 304.662 145.444V149H302.478ZM312.58 149V147.53L312.44 147.208V144.576C312.44 144.109 312.295 143.745 312.006 143.484C311.726 143.223 311.292 143.092 310.704 143.092C310.303 143.092 309.906 143.157 309.514 143.288C309.131 143.409 308.805 143.577 308.534 143.792L307.75 142.266C308.161 141.977 308.655 141.753 309.234 141.594C309.813 141.435 310.401 141.356 310.998 141.356C312.146 141.356 313.037 141.627 313.672 142.168C314.307 142.709 314.624 143.554 314.624 144.702V149H312.58ZM310.284 149.112C309.696 149.112 309.192 149.014 308.772 148.818C308.352 148.613 308.03 148.337 307.806 147.992C307.582 147.647 307.47 147.259 307.47 146.83C307.47 146.382 307.577 145.99 307.792 145.654C308.016 145.318 308.366 145.057 308.842 144.87C309.318 144.674 309.939 144.576 310.704 144.576H312.706V145.85H310.942C310.429 145.85 310.074 145.934 309.878 146.102C309.691 146.27 309.598 146.48 309.598 146.732C309.598 147.012 309.705 147.236 309.92 147.404C310.144 147.563 310.447 147.642 310.83 147.642C311.194 147.642 311.521 147.558 311.81 147.39C312.099 147.213 312.309 146.956 312.44 146.62L312.776 147.628C312.617 148.113 312.328 148.482 311.908 148.734C311.488 148.986 310.947 149.112 310.284 149.112ZM321.179 141.356C321.776 141.356 322.308 141.477 322.775 141.72C323.251 141.953 323.624 142.317 323.895 142.812C324.165 143.297 324.301 143.923 324.301 144.688V149H322.117V145.024C322.117 144.417 321.981 143.969 321.711 143.68C321.449 143.391 321.076 143.246 320.591 143.246C320.245 143.246 319.933 143.321 319.653 143.47C319.382 143.61 319.167 143.829 319.009 144.128C318.859 144.427 318.785 144.809 318.785 145.276V149H316.601V141.468H318.687V143.554L318.295 142.924C318.565 142.42 318.953 142.033 319.457 141.762C319.961 141.491 320.535 141.356 321.179 141.356ZM329.975 149.112C329.163 149.112 328.44 148.949 327.805 148.622C327.17 148.286 326.671 147.824 326.307 147.236C325.952 146.648 325.775 145.981 325.775 145.234C325.775 144.478 325.952 143.811 326.307 143.232C326.671 142.644 327.17 142.187 327.805 141.86C328.44 141.524 329.163 141.356 329.975 141.356C330.768 141.356 331.459 141.524 332.047 141.86C332.635 142.187 333.069 142.658 333.349 143.274L331.655 144.184C331.459 143.829 331.212 143.568 330.913 143.4C330.624 143.232 330.306 143.148 329.961 143.148C329.588 143.148 329.252 143.232 328.953 143.4C328.654 143.568 328.416 143.806 328.239 144.114C328.071 144.422 327.987 144.795 327.987 145.234C327.987 145.673 328.071 146.046 328.239 146.354C328.416 146.662 328.654 146.9 328.953 147.068C329.252 147.236 329.588 147.32 329.961 147.32C330.306 147.32 330.624 147.241 330.913 147.082C331.212 146.914 331.459 146.648 331.655 146.284L333.349 147.208C333.069 147.815 332.635 148.286 332.047 148.622C331.459 148.949 330.768 149.112 329.975 149.112ZM338.249 149.112C337.39 149.112 336.634 148.944 335.981 148.608C335.337 148.272 334.838 147.815 334.483 147.236C334.128 146.648 333.951 145.981 333.951 145.234C333.951 144.478 334.124 143.811 334.469 143.232C334.824 142.644 335.304 142.187 335.911 141.86C336.518 141.524 337.204 141.356 337.969 141.356C338.706 141.356 339.369 141.515 339.957 141.832C340.554 142.14 341.026 142.588 341.371 143.176C341.716 143.755 341.889 144.45 341.889 145.262C341.889 145.346 341.884 145.444 341.875 145.556C341.866 145.659 341.856 145.757 341.847 145.85H335.729V144.576H340.699L339.859 144.954C339.859 144.562 339.78 144.221 339.621 143.932C339.462 143.643 339.243 143.419 338.963 143.26C338.683 143.092 338.356 143.008 337.983 143.008C337.61 143.008 337.278 143.092 336.989 143.26C336.709 143.419 336.49 143.647 336.331 143.946C336.172 144.235 336.093 144.581 336.093 144.982V145.318C336.093 145.729 336.182 146.093 336.359 146.41C336.546 146.718 336.802 146.956 337.129 147.124C337.465 147.283 337.857 147.362 338.305 147.362C338.706 147.362 339.056 147.301 339.355 147.18C339.663 147.059 339.943 146.877 340.195 146.634L341.357 147.894C341.012 148.286 340.578 148.589 340.055 148.804C339.532 149.009 338.93 149.112 338.249 149.112Z"
    fill="#37072A" />
  <path
    d="M145.748 34.16C145.033 34.16 144.372 34.0213 143.764 33.744C143.167 33.4667 142.676 33.0667 142.292 32.544L143.476 31.12C143.785 31.5467 144.121 31.8667 144.484 32.08C144.857 32.2933 145.263 32.4 145.7 32.4C146.863 32.4 147.444 31.712 147.444 30.336V24.544H143.46V22.8H149.524V30.224C149.524 31.5467 149.199 32.5333 148.548 33.184C147.908 33.8347 146.975 34.16 145.748 34.16ZM155.866 34.112C155.14 34.112 154.5 33.9787 153.946 33.712C153.391 33.4347 152.959 33.0187 152.65 32.464C152.34 31.8987 152.186 31.1893 152.186 30.336V25.456H154.186V30.064C154.186 30.832 154.356 31.408 154.698 31.792C155.05 32.1653 155.546 32.352 156.186 32.352C156.655 32.352 157.06 32.256 157.402 32.064C157.754 31.872 158.026 31.584 158.218 31.2C158.42 30.816 158.522 30.3413 158.522 29.776V25.456H160.522V34H158.618V31.696L158.954 32.4C158.666 32.9547 158.244 33.3813 157.69 33.68C157.135 33.968 156.527 34.112 155.866 34.112ZM163.14 34V22.128H165.14V34H163.14ZM168.469 37.216C168.053 37.216 167.637 37.1467 167.221 37.008C166.805 36.8693 166.458 36.6773 166.181 36.432L166.981 34.96C167.184 35.1413 167.413 35.2853 167.669 35.392C167.925 35.4987 168.186 35.552 168.453 35.552C168.816 35.552 169.109 35.4613 169.333 35.28C169.557 35.0987 169.765 34.7947 169.957 34.368L170.453 33.248L170.613 33.008L173.845 25.456H175.765L171.765 34.688C171.498 35.328 171.2 35.8347 170.869 36.208C170.549 36.5813 170.186 36.8427 169.781 36.992C169.386 37.1413 168.949 37.216 168.469 37.216ZM170.229 34.304L166.373 25.456H168.453L171.589 32.832L170.229 34.304ZM180.685 34V32.608L185.133 28.384C185.506 28.032 185.784 27.7227 185.965 27.456C186.146 27.1893 186.264 26.944 186.317 26.72C186.381 26.4853 186.413 26.2667 186.413 26.064C186.413 25.552 186.237 25.1573 185.885 24.88C185.533 24.592 185.016 24.448 184.333 24.448C183.789 24.448 183.293 24.544 182.845 24.736C182.408 24.928 182.029 25.2213 181.709 25.616L180.253 24.496C180.69 23.9093 181.277 23.456 182.013 23.136C182.76 22.8053 183.592 22.64 184.509 22.64C185.32 22.64 186.024 22.7733 186.621 23.04C187.229 23.296 187.693 23.664 188.013 24.144C188.344 24.624 188.509 25.1947 188.509 25.856C188.509 26.2187 188.461 26.5813 188.365 26.944C188.269 27.296 188.088 27.6693 187.821 28.064C187.554 28.4587 187.165 28.9013 186.653 29.392L182.829 33.024L182.397 32.24H188.941V34H180.685ZM200.435 34V32.272L200.323 31.904V28.88C200.323 28.2933 200.147 27.84 199.795 27.52C199.443 27.1893 198.91 27.024 198.195 27.024C197.715 27.024 197.241 27.0987 196.771 27.248C196.313 27.3973 195.923 27.6053 195.603 27.872L194.819 26.416C195.278 26.064 195.822 25.8027 196.451 25.632C197.091 25.4507 197.753 25.36 198.435 25.36C199.673 25.36 200.627 25.6587 201.299 26.256C201.982 26.8427 202.323 27.7547 202.323 28.992V34H200.435ZM197.747 34.112C197.107 34.112 196.547 34.0053 196.067 33.792C195.587 33.568 195.214 33.264 194.947 32.88C194.691 32.4853 194.563 32.0427 194.563 31.552C194.563 31.072 194.675 30.64 194.899 30.256C195.134 29.872 195.513 29.568 196.035 29.344C196.558 29.12 197.251 29.008 198.115 29.008H200.595V30.336H198.259C197.577 30.336 197.118 30.448 196.883 30.672C196.649 30.8853 196.531 31.152 196.531 31.472C196.531 31.8347 196.675 32.1227 196.963 32.336C197.251 32.5493 197.651 32.656 198.163 32.656C198.654 32.656 199.091 32.544 199.475 32.32C199.87 32.096 200.153 31.7653 200.323 31.328L200.659 32.528C200.467 33.0293 200.121 33.4187 199.619 33.696C199.129 33.9733 198.505 34.112 197.747 34.112ZM208.106 34.112C207.167 34.112 206.442 33.872 205.93 33.392C205.418 32.9013 205.162 32.1813 205.162 31.232V23.568H207.162V31.184C207.162 31.5893 207.263 31.904 207.466 32.128C207.679 32.352 207.973 32.464 208.346 32.464C208.794 32.464 209.167 32.3467 209.466 32.112L210.026 33.536C209.791 33.728 209.503 33.872 209.162 33.968C208.821 34.064 208.469 34.112 208.106 34.112ZM203.754 27.12V25.52H209.45V27.12H203.754ZM219.261 22.64C220.285 22.64 221.155 22.8587 221.869 23.296C222.595 23.7227 223.149 24.3467 223.533 25.168C223.917 25.9893 224.109 27.0027 224.109 28.208C224.109 29.488 223.875 30.5707 223.405 31.456C222.947 32.3413 222.307 33.0133 221.485 33.472C220.664 33.9307 219.709 34.16 218.621 34.16C218.056 34.16 217.517 34.1013 217.005 33.984C216.493 33.8667 216.051 33.6853 215.677 33.44L216.445 31.872C216.755 32.0747 217.091 32.2187 217.453 32.304C217.816 32.3787 218.189 32.416 218.573 32.416C219.629 32.416 220.467 32.0907 221.085 31.44C221.704 30.7893 222.013 29.8293 222.013 28.56C222.013 28.3573 222.008 28.1227 221.997 27.856C221.987 27.5787 221.949 27.3013 221.885 27.024L222.525 27.728C222.344 28.1653 222.083 28.5333 221.741 28.832C221.4 29.12 221 29.3387 220.541 29.488C220.083 29.6373 219.576 29.712 219.021 29.712C218.296 29.712 217.64 29.5733 217.053 29.296C216.477 29.008 216.019 28.608 215.677 28.096C215.336 27.5733 215.165 26.9653 215.165 26.272C215.165 25.5253 215.347 24.8853 215.709 24.352C216.072 23.808 216.563 23.3867 217.181 23.088C217.811 22.7893 218.504 22.64 219.261 22.64ZM219.373 24.272C218.947 24.272 218.568 24.352 218.237 24.512C217.907 24.6613 217.645 24.88 217.453 25.168C217.272 25.4453 217.181 25.7813 217.181 26.176C217.181 26.7627 217.384 27.2267 217.789 27.568C218.195 27.9093 218.739 28.08 219.421 28.08C219.869 28.08 220.264 28 220.605 27.84C220.947 27.6693 221.213 27.44 221.405 27.152C221.597 26.8533 221.693 26.5227 221.693 26.16C221.693 25.808 221.603 25.4933 221.421 25.216C221.24 24.928 220.979 24.6987 220.637 24.528C220.296 24.3573 219.875 24.272 219.373 24.272ZM235.282 34.112C234.589 34.112 233.954 33.952 233.378 33.632C232.813 33.312 232.36 32.832 232.018 32.192C231.688 31.5413 231.522 30.72 231.522 29.728C231.522 28.7253 231.682 27.904 232.002 27.264C232.333 26.624 232.781 26.1493 233.346 25.84C233.912 25.52 234.557 25.36 235.282 25.36C236.125 25.36 236.866 25.5413 237.506 25.904C238.157 26.2667 238.669 26.7733 239.042 27.424C239.426 28.0747 239.618 28.8427 239.618 29.728C239.618 30.6133 239.426 31.3867 239.042 32.048C238.669 32.6987 238.157 33.2053 237.506 33.568C236.866 33.9307 236.125 34.112 235.282 34.112ZM230.546 37.104V25.456H232.45V27.472L232.386 29.744L232.546 32.016V37.104H230.546ZM235.058 32.4C235.538 32.4 235.965 32.2933 236.338 32.08C236.722 31.8667 237.026 31.5573 237.25 31.152C237.474 30.7467 237.586 30.272 237.586 29.728C237.586 29.1733 237.474 28.6987 237.25 28.304C237.026 27.8987 236.722 27.5893 236.338 27.376C235.965 27.1627 235.538 27.056 235.058 27.056C234.578 27.056 234.146 27.1627 233.762 27.376C233.378 27.5893 233.074 27.8987 232.85 28.304C232.626 28.6987 232.514 29.1733 232.514 29.728C232.514 30.272 232.626 30.7467 232.85 31.152C233.074 31.5573 233.378 31.8667 233.762 32.08C234.146 32.2933 234.578 32.4 235.058 32.4ZM242.015 34.112C241.652 34.112 241.343 33.9893 241.087 33.744C240.831 33.488 240.703 33.168 240.703 32.784C240.703 32.3787 240.831 32.0587 241.087 31.824C241.343 31.5787 241.652 31.456 242.015 31.456C242.377 31.456 242.687 31.5787 242.943 31.824C243.199 32.0587 243.327 32.3787 243.327 32.784C243.327 33.168 243.199 33.488 242.943 33.744C242.687 33.9893 242.377 34.112 242.015 34.112ZM256.065 25.36C256.747 25.36 257.35 25.4933 257.873 25.76C258.406 26.0267 258.822 26.4373 259.121 26.992C259.419 27.536 259.569 28.24 259.569 29.104V34H257.569V29.36C257.569 28.6027 257.403 28.0373 257.073 27.664C256.742 27.2907 256.267 27.104 255.649 27.104C255.211 27.104 254.822 27.2 254.481 27.392C254.15 27.584 253.889 27.8667 253.697 28.24C253.515 28.6133 253.425 29.088 253.425 29.664V34H251.425V29.36C251.425 28.6027 251.259 28.0373 250.929 27.664C250.598 27.2907 250.123 27.104 249.505 27.104C249.067 27.104 248.678 27.2 248.337 27.392C248.006 27.584 247.745 27.8667 247.553 28.24C247.371 28.6133 247.281 29.088 247.281 29.664V34H245.281V25.456H247.185V27.728L246.849 27.056C247.137 26.5013 247.553 26.08 248.097 25.792C248.651 25.504 249.281 25.36 249.985 25.36C250.785 25.36 251.478 25.5573 252.065 25.952C252.662 26.3467 253.057 26.944 253.249 27.744L252.465 27.472C252.742 26.832 253.201 26.32 253.841 25.936C254.481 25.552 255.222 25.36 256.065 25.36ZM262.765 34.112C262.402 34.112 262.093 33.9893 261.837 33.744C261.581 33.488 261.453 33.168 261.453 32.784C261.453 32.3787 261.581 32.0587 261.837 31.824C262.093 31.5787 262.402 31.456 262.765 31.456C263.127 31.456 263.437 31.5787 263.693 31.824C263.949 32.0587 264.077 32.3787 264.077 32.784C264.077 33.168 263.949 33.488 263.693 33.744C263.437 33.9893 263.127 34.112 262.765 34.112Z"
    fill="#37072A" />
  <path
    d="M178 79.3333V96.6667M169.333 88H186.667M168.9 107.5H187.1C190.74 107.5 192.561 107.5 193.951 106.792C195.174 106.168 196.168 105.174 196.792 103.951C197.5 102.561 197.5 100.74 197.5 97.1V78.9C197.5 75.2597 197.5 73.4395 196.792 72.0491C196.168 70.826 195.174 69.8316 193.951 69.2085C192.561 68.5 190.74 68.5 187.1 68.5H168.9C165.26 68.5 163.439 68.5 162.049 69.2085C160.826 69.8316 159.832 70.826 159.208 72.0491C158.5 73.4395 158.5 75.2597 158.5 78.9V97.1C158.5 100.74 158.5 102.561 159.208 103.951C159.832 105.174 160.826 106.168 162.049 106.792C163.439 107.5 165.26 107.5 168.9 107.5Z"
    stroke="#37072A" stroke-width="2" stroke-linecap="round" stroke-linejoin="round" />
  <path
    d="M230 79.3333V96.6667M221.333 88H238.667M220.9 107.5H239.1C242.74 107.5 244.561 107.5 245.951 106.792C247.174 106.168 248.168 105.174 248.792 103.951C249.5 102.561 249.5 100.74 249.5 97.1V78.9C249.5 75.2597 249.5 73.4395 248.792 72.0491C248.168 70.826 247.174 69.8316 245.951 69.2085C244.561 68.5 242.74 68.5 239.1 68.5H220.9C217.26 68.5 215.439 68.5 214.049 69.2085C212.826 69.8316 211.832 70.826 211.208 72.0491C210.5 73.4395 210.5 75.2597 210.5 78.9V97.1C210.5 100.74 210.5 102.561 211.208 103.951C211.832 105.174 212.826 106.168 214.049 106.792C215.439 107.5 217.26 107.5 220.9 107.5Z"
    stroke="#37072A" stroke-width="2" stroke-linecap="round" stroke-linejoin="round" />
  <path
    d="M155.11 141.6H156.67V150H155.11V141.6ZM150.766 150H149.206V141.6H150.766V150ZM155.23 146.4H150.634V145.068H155.23V146.4ZM161.489 150.084C160.945 150.084 160.465 149.984 160.049 149.784C159.633 149.576 159.309 149.264 159.077 148.848C158.845 148.424 158.729 147.892 158.729 147.252V143.592H160.229V147.048C160.229 147.624 160.357 148.056 160.613 148.344C160.877 148.624 161.249 148.764 161.729 148.764C162.081 148.764 162.385 148.692 162.641 148.548C162.905 148.404 163.109 148.188 163.253 147.9C163.405 147.612 163.481 147.256 163.481 146.832V143.592H164.981V150H163.553V148.272L163.805 148.8C163.589 149.216 163.273 149.536 162.857 149.76C162.441 149.976 161.985 150.084 161.489 150.084ZM169.657 150.084C169.041 150.084 168.485 149.948 167.989 149.676C167.501 149.396 167.117 149.012 166.837 148.524C166.557 148.036 166.417 147.46 166.417 146.796C166.417 146.132 166.557 145.556 166.837 145.068C167.117 144.58 167.501 144.2 167.989 143.928C168.485 143.656 169.041 143.52 169.657 143.52C170.193 143.52 170.673 143.64 171.097 143.88C171.521 144.112 171.857 144.468 172.105 144.948C172.353 145.428 172.477 146.044 172.477 146.796C172.477 147.54 172.357 148.156 172.117 148.644C171.877 149.124 171.545 149.484 171.121 149.724C170.697 149.964 170.209 150.084 169.657 150.084ZM169.837 148.8C170.197 148.8 170.517 148.72 170.797 148.56C171.085 148.4 171.313 148.168 171.481 147.864C171.657 147.56 171.745 147.204 171.745 146.796C171.745 146.38 171.657 146.024 171.481 145.728C171.313 145.424 171.085 145.192 170.797 145.032C170.517 144.872 170.197 144.792 169.837 144.792C169.477 144.792 169.153 144.872 168.865 145.032C168.585 145.192 168.357 145.424 168.181 145.728C168.013 146.024 167.929 146.38 167.929 146.796C167.929 147.204 168.013 147.56 168.181 147.864C168.357 148.168 168.585 148.4 168.865 148.56C169.153 148.72 169.477 148.8 169.837 148.8ZM171.781 150V148.488L171.841 146.784L171.721 145.08V141.096H173.209V150H171.781ZM177.895 150.084C177.279 150.084 176.723 149.948 176.227 149.676C175.739 149.396 175.355 149.012 175.075 148.524C174.795 148.036 174.655 147.46 174.655 146.796C174.655 146.132 174.795 145.556 175.075 145.068C175.355 144.58 175.739 144.2 176.227 143.928C176.723 143.656 177.279 143.52 177.895 143.52C178.431 143.52 178.911 143.64 179.335 143.88C179.759 144.112 180.095 144.468 180.343 144.948C180.591 145.428 180.715 146.044 180.715 146.796C180.715 147.54 180.595 148.156 180.355 148.644C180.115 149.124 179.783 149.484 179.359 149.724C178.935 149.964 178.447 150.084 177.895 150.084ZM178.075 148.8C178.435 148.8 178.755 148.72 179.035 148.56C179.323 148.4 179.551 148.168 179.719 147.864C179.895 147.56 179.983 147.204 179.983 146.796C179.983 146.38 179.895 146.024 179.719 145.728C179.551 145.424 179.323 145.192 179.035 145.032C178.755 144.872 178.435 144.792 178.075 144.792C177.715 144.792 177.391 144.872 177.103 145.032C176.823 145.192 176.595 145.424 176.419 145.728C176.251 146.024 176.167 146.38 176.167 146.796C176.167 147.204 176.251 147.56 176.419 147.864C176.595 148.168 176.823 148.4 177.103 148.56C177.391 148.72 177.715 148.8 178.075 148.8ZM180.019 150V148.488L180.079 146.784L179.959 145.08V141.096H181.447V150H180.019ZM183.422 150V141.096H184.922V150H183.422ZM189.902 150.084C189.19 150.084 188.566 149.944 188.03 149.664C187.502 149.376 187.09 148.984 186.794 148.488C186.506 147.992 186.362 147.428 186.362 146.796C186.362 146.156 186.502 145.592 186.782 145.104C187.07 144.608 187.462 144.22 187.958 143.94C188.462 143.66 189.034 143.52 189.674 143.52C190.298 143.52 190.854 143.656 191.342 143.928C191.83 144.2 192.214 144.584 192.494 145.08C192.774 145.576 192.914 146.16 192.914 146.832C192.914 146.896 192.91 146.968 192.902 147.048C192.902 147.128 192.898 147.204 192.89 147.276H187.55V146.28H192.098L191.51 146.592C191.518 146.224 191.442 145.9 191.282 145.62C191.122 145.34 190.902 145.12 190.622 144.96C190.35 144.8 190.034 144.72 189.674 144.72C189.306 144.72 188.982 144.8 188.702 144.96C188.43 145.12 188.214 145.344 188.054 145.632C187.902 145.912 187.826 146.244 187.826 146.628V146.868C187.826 147.252 187.914 147.592 188.09 147.888C188.266 148.184 188.514 148.412 188.834 148.572C189.154 148.732 189.522 148.812 189.938 148.812C190.298 148.812 190.622 148.756 190.91 148.644C191.198 148.532 191.454 148.356 191.678 148.116L192.482 149.04C192.194 149.376 191.83 149.636 191.39 149.82C190.958 149.996 190.462 150.084 189.902 150.084ZM200.612 150.084C199.94 150.084 199.34 149.944 198.812 149.664C198.292 149.376 197.884 148.984 197.588 148.488C197.292 147.992 197.144 147.428 197.144 146.796C197.144 146.156 197.292 145.592 197.588 145.104C197.884 144.608 198.292 144.22 198.812 143.94C199.34 143.66 199.94 143.52 200.612 143.52C201.236 143.52 201.784 143.648 202.256 143.904C202.736 144.152 203.1 144.52 203.348 145.008L202.196 145.68C202.004 145.376 201.768 145.152 201.488 145.008C201.216 144.864 200.92 144.792 200.6 144.792C200.232 144.792 199.9 144.872 199.604 145.032C199.308 145.192 199.076 145.424 198.908 145.728C198.74 146.024 198.656 146.38 198.656 146.796C198.656 147.212 198.74 147.572 198.908 147.876C199.076 148.172 199.308 148.4 199.604 148.56C199.9 148.72 200.232 148.8 200.6 148.8C200.92 148.8 201.216 148.728 201.488 148.584C201.768 148.44 202.004 148.216 202.196 147.912L203.348 148.584C203.1 149.064 202.736 149.436 202.256 149.7C201.784 149.956 201.236 150.084 200.612 150.084ZM207.43 150.084C206.774 150.084 206.19 149.944 205.678 149.664C205.166 149.376 204.762 148.984 204.466 148.488C204.17 147.992 204.022 147.428 204.022 146.796C204.022 146.156 204.17 145.592 204.466 145.104C204.762 144.608 205.166 144.22 205.678 143.94C206.19 143.66 206.774 143.52 207.43 143.52C208.094 143.52 208.682 143.66 209.194 143.94C209.714 144.22 210.118 144.604 210.406 145.092C210.702 145.58 210.85 146.148 210.85 146.796C210.85 147.428 210.702 147.992 210.406 148.488C210.118 148.984 209.714 149.376 209.194 149.664C208.682 149.944 208.094 150.084 207.43 150.084ZM207.43 148.8C207.798 148.8 208.126 148.72 208.414 148.56C208.702 148.4 208.926 148.168 209.086 147.864C209.254 147.56 209.338 147.204 209.338 146.796C209.338 146.38 209.254 146.024 209.086 145.728C208.926 145.424 208.702 145.192 208.414 145.032C208.126 144.872 207.802 144.792 207.442 144.792C207.074 144.792 206.746 144.872 206.458 145.032C206.178 145.192 205.954 145.424 205.786 145.728C205.618 146.024 205.534 146.38 205.534 146.796C205.534 147.204 205.618 147.56 205.786 147.864C205.954 148.168 206.178 148.4 206.458 148.56C206.746 148.72 207.07 148.8 207.43 148.8ZM216.151 150V148.704L216.067 148.428V146.16C216.067 145.72 215.935 145.38 215.671 145.14C215.407 144.892 215.007 144.768 214.471 144.768C214.111 144.768 213.755 144.824 213.403 144.936C213.059 145.048 212.767 145.204 212.527 145.404L211.939 144.312C212.283 144.048 212.691 143.852 213.163 143.724C213.643 143.588 214.139 143.52 214.651 143.52C215.579 143.52 216.295 143.744 216.799 144.192C217.311 144.632 217.567 145.316 217.567 146.244V150H216.151ZM214.135 150.084C213.655 150.084 213.235 150.004 212.875 149.844C212.515 149.676 212.235 149.448 212.035 149.16C211.843 148.864 211.747 148.532 211.747 148.164C211.747 147.804 211.831 147.48 211.999 147.192C212.175 146.904 212.459 146.676 212.851 146.508C213.243 146.34 213.763 146.256 214.411 146.256H216.271V147.252H214.519C214.007 147.252 213.663 147.336 213.487 147.504C213.311 147.664 213.223 147.864 213.223 148.104C213.223 148.376 213.331 148.592 213.547 148.752C213.763 148.912 214.063 148.992 214.447 148.992C214.815 148.992 215.143 148.908 215.431 148.74C215.727 148.572 215.939 148.324 216.067 147.996L216.319 148.896C216.175 149.272 215.915 149.564 215.539 149.772C215.171 149.98 214.703 150.084 214.135 150.084ZM222.444 150.084C221.772 150.084 221.172 149.944 220.644 149.664C220.124 149.376 219.716 148.984 219.42 148.488C219.124 147.992 218.976 147.428 218.976 146.796C218.976 146.156 219.124 145.592 219.42 145.104C219.716 144.608 220.124 144.22 220.644 143.94C221.172 143.66 221.772 143.52 222.444 143.52C223.068 143.52 223.616 143.648 224.088 143.904C224.568 144.152 224.932 144.52 225.18 145.008L224.028 145.68C223.836 145.376 223.6 145.152 223.32 145.008C223.048 144.864 222.752 144.792 222.432 144.792C222.064 144.792 221.732 144.872 221.436 145.032C221.14 145.192 220.908 145.424 220.74 145.728C220.572 146.024 220.488 146.38 220.488 146.796C220.488 147.212 220.572 147.572 220.74 147.876C220.908 148.172 221.14 148.4 221.436 148.56C221.732 148.72 222.064 148.8 222.432 148.8C222.752 148.8 223.048 148.728 223.32 148.584C223.6 148.44 223.836 148.216 224.028 147.912L225.18 148.584C224.932 149.064 224.568 149.436 224.088 149.7C223.616 149.956 223.068 150.084 222.444 150.084ZM230.054 143.52C230.566 143.52 231.022 143.62 231.422 143.82C231.83 144.02 232.15 144.328 232.382 144.744C232.614 145.152 232.73 145.68 232.73 146.328V150H231.23V146.52C231.23 145.952 231.094 145.528 230.822 145.248C230.558 144.968 230.186 144.828 229.706 144.828C229.354 144.828 229.042 144.9 228.77 145.044C228.498 145.188 228.286 145.404 228.134 145.692C227.99 145.972 227.918 146.328 227.918 146.76V150H226.418V141.096H227.918V145.32L227.594 144.792C227.818 144.384 228.142 144.072 228.566 143.856C228.998 143.632 229.494 143.52 230.054 143.52ZM240.361 150.084C239.657 150.084 239.113 149.904 238.729 149.544C238.345 149.176 238.153 148.636 238.153 147.924V142.176H239.653V147.888C239.653 148.192 239.729 148.428 239.881 148.596C240.041 148.764 240.261 148.848 240.541 148.848C240.877 148.848 241.157 148.76 241.381 148.584L241.801 149.652C241.625 149.796 241.409 149.904 241.153 149.976C240.897 150.048 240.633 150.084 240.361 150.084ZM237.097 144.84V143.64H241.369V144.84H237.097ZM243.035 150V143.592H244.535V150H243.035ZM243.791 142.536C243.511 142.536 243.279 142.448 243.095 142.272C242.919 142.096 242.831 141.884 242.831 141.636C242.831 141.38 242.919 141.168 243.095 141C243.279 140.824 243.511 140.736 243.791 140.736C244.071 140.736 244.299 140.82 244.475 140.988C244.659 141.148 244.751 141.352 244.751 141.6C244.751 141.864 244.663 142.088 244.487 142.272C244.311 142.448 244.079 142.536 243.791 142.536ZM250.056 150.084C249.536 150.084 249.06 149.964 248.628 149.724C248.204 149.484 247.864 149.124 247.608 148.644C247.36 148.156 247.236 147.54 247.236 146.796C247.236 146.044 247.356 145.428 247.596 144.948C247.844 144.468 248.18 144.112 248.604 143.88C249.028 143.64 249.512 143.52 250.056 143.52C250.688 143.52 251.244 143.656 251.724 143.928C252.212 144.2 252.596 144.58 252.876 145.068C253.164 145.556 253.308 146.132 253.308 146.796C253.308 147.46 253.164 148.04 252.876 148.536C252.596 149.024 252.212 149.404 251.724 149.676C251.244 149.948 250.688 150.084 250.056 150.084ZM246.504 152.328V143.592H247.932V145.104L247.884 146.808L248.004 148.512V152.328H246.504ZM249.888 148.8C250.248 148.8 250.568 148.72 250.848 148.56C251.136 148.4 251.364 148.168 251.532 147.864C251.7 147.56 251.784 147.204 251.784 146.796C251.784 146.38 251.7 146.024 251.532 145.728C251.364 145.424 251.136 145.192 250.848 145.032C250.568 144.872 250.248 144.792 249.888 144.792C249.528 144.792 249.204 144.872 248.916 145.032C248.628 145.192 248.4 145.424 248.232 145.728C248.064 146.024 247.98 146.38 247.98 146.796C247.98 147.204 248.064 147.56 248.232 147.864C248.4 148.168 248.628 148.4 248.916 148.56C249.204 148.72 249.528 148.8 249.888 148.8ZM256.71 150.084C256.174 150.084 255.658 150.016 255.162 149.88C254.674 149.736 254.286 149.564 253.998 149.364L254.574 148.224C254.862 148.408 255.206 148.56 255.606 148.68C256.006 148.8 256.406 148.86 256.806 148.86C257.278 148.86 257.618 148.796 257.826 148.668C258.042 148.54 258.15 148.368 258.15 148.152C258.15 147.976 258.078 147.844 257.934 147.756C257.79 147.66 257.602 147.588 257.37 147.54C257.138 147.492 256.878 147.448 256.59 147.408C256.31 147.368 256.026 147.316 255.738 147.252C255.458 147.18 255.202 147.08 254.97 146.952C254.738 146.816 254.55 146.636 254.406 146.412C254.262 146.188 254.19 145.892 254.19 145.524C254.19 145.116 254.306 144.764 254.538 144.468C254.77 144.164 255.094 143.932 255.51 143.772C255.934 143.604 256.434 143.52 257.01 143.52C257.442 143.52 257.878 143.568 258.318 143.664C258.758 143.76 259.122 143.896 259.41 144.072L258.834 145.212C258.53 145.028 258.222 144.904 257.91 144.84C257.606 144.768 257.302 144.732 256.998 144.732C256.542 144.732 256.202 144.8 255.978 144.936C255.762 145.072 255.654 145.244 255.654 145.452C255.654 145.644 255.726 145.788 255.87 145.884C256.014 145.98 256.202 146.056 256.434 146.112C256.666 146.168 256.922 146.216 257.202 146.256C257.49 146.288 257.774 146.34 258.054 146.412C258.334 146.484 258.59 146.584 258.822 146.712C259.062 146.832 259.254 147.004 259.398 147.228C259.542 147.452 259.614 147.744 259.614 148.104C259.614 148.504 259.494 148.852 259.254 149.148C259.022 149.444 258.69 149.676 258.258 149.844C257.826 150.004 257.31 150.084 256.71 150.084Z"
    fill="#37072A" />
  <rect x="147.75" y="177.75" width="43.5" height="24.5" rx="12.25" stroke="#37072A"
    stroke-width="1.5" />
  <path
    d="M155.539 195V194.048L159.529 190.198C159.884 189.862 160.145 189.568 160.313 189.316C160.491 189.055 160.607 188.817 160.663 188.602C160.729 188.378 160.761 188.163 160.761 187.958C160.761 187.454 160.584 187.057 160.229 186.768C159.875 186.479 159.357 186.334 158.675 186.334C158.153 186.334 157.681 186.423 157.261 186.6C156.841 186.768 156.477 187.034 156.169 187.398L155.217 186.572C155.591 186.096 156.09 185.732 156.715 185.48C157.35 185.219 158.045 185.088 158.801 185.088C159.483 185.088 160.075 185.2 160.579 185.424C161.083 185.639 161.471 185.951 161.741 186.362C162.021 186.773 162.161 187.258 162.161 187.818C162.161 188.135 162.119 188.448 162.035 188.756C161.951 189.064 161.793 189.391 161.559 189.736C161.326 190.081 160.99 190.469 160.551 190.898L156.995 194.328L156.659 193.782H162.581V195H155.539ZM167.618 191.738V190.576H171.384V191.738H167.618ZM176.457 195V194.048L180.447 190.198C180.802 189.862 181.063 189.568 181.231 189.316C181.409 189.055 181.525 188.817 181.581 188.602C181.647 188.378 181.679 188.163 181.679 187.958C181.679 187.454 181.502 187.057 181.147 186.768C180.793 186.479 180.275 186.334 179.593 186.334C179.071 186.334 178.599 186.423 178.179 186.6C177.759 186.768 177.395 187.034 177.087 187.398L176.135 186.572C176.509 186.096 177.008 185.732 177.633 185.48C178.268 185.219 178.963 185.088 179.719 185.088C180.401 185.088 180.993 185.2 181.497 185.424C182.001 185.639 182.389 185.951 182.659 186.362C182.939 186.773 183.079 187.258 183.079 187.818C183.079 188.135 183.037 188.448 182.953 188.756C182.869 189.064 182.711 189.391 182.477 189.736C182.244 190.081 181.908 190.469 181.469 190.898L177.913 194.328L177.577 193.782H183.499V195H176.457Z"
    fill="black" />
  <path
    d="M161.82 219.08C161.327 219.08 160.847 219.003 160.38 218.85C159.92 218.697 159.543 218.49 159.25 218.23L159.71 217.44C159.943 217.66 160.247 217.84 160.62 217.98C160.993 218.12 161.39 218.19 161.81 218.19C162.343 218.19 162.753 218.077 163.04 217.85C163.327 217.623 163.47 217.32 163.47 216.94C163.47 216.68 163.407 216.453 163.28 216.26C163.153 216.067 162.933 215.92 162.62 215.82C162.313 215.713 161.89 215.66 161.35 215.66H159.76L160.13 212H164.08V212.87H160.5L161.02 212.38L160.73 215.27L160.21 214.79H161.56C162.26 214.79 162.823 214.88 163.25 215.06C163.677 215.24 163.987 215.49 164.18 215.81C164.373 216.123 164.47 216.487 164.47 216.9C164.47 217.3 164.373 217.667 164.18 218C163.987 218.327 163.693 218.59 163.3 218.79C162.913 218.983 162.42 219.08 161.82 219.08ZM168.162 219.08C167.616 219.08 167.126 218.94 166.692 218.66C166.266 218.38 165.926 217.973 165.672 217.44C165.426 216.907 165.302 216.26 165.302 215.5C165.302 214.74 165.426 214.093 165.672 213.56C165.926 213.027 166.266 212.62 166.692 212.34C167.126 212.06 167.616 211.92 168.162 211.92C168.702 211.92 169.189 212.06 169.622 212.34C170.056 212.62 170.396 213.027 170.642 213.56C170.889 214.093 171.012 214.74 171.012 215.5C171.012 216.26 170.889 216.907 170.642 217.44C170.396 217.973 170.056 218.38 169.622 218.66C169.189 218.94 168.702 219.08 168.162 219.08ZM168.162 218.19C168.529 218.19 168.849 218.09 169.122 217.89C169.402 217.69 169.619 217.39 169.772 216.99C169.932 216.59 170.012 216.093 170.012 215.5C170.012 214.907 169.932 214.41 169.772 214.01C169.619 213.61 169.402 213.31 169.122 213.11C168.849 212.91 168.529 212.81 168.162 212.81C167.796 212.81 167.472 212.91 167.192 213.11C166.912 213.31 166.692 213.61 166.532 214.01C166.379 214.41 166.302 214.907 166.302 215.5C166.302 216.093 166.379 216.59 166.532 216.99C166.692 217.39 166.912 217.69 167.192 217.89C167.472 218.09 167.796 218.19 168.162 218.19ZM172.932 219L177.712 212H178.482L173.702 219H172.932ZM173.492 215.76C173.172 215.76 172.889 215.68 172.642 215.52C172.396 215.36 172.202 215.137 172.062 214.85C171.929 214.563 171.862 214.23 171.862 213.85C171.862 213.47 171.929 213.137 172.062 212.85C172.202 212.563 172.396 212.34 172.642 212.18C172.889 212.02 173.172 211.94 173.492 211.94C173.819 211.94 174.102 212.02 174.342 212.18C174.589 212.34 174.779 212.563 174.912 212.85C175.046 213.137 175.112 213.47 175.112 213.85C175.112 214.23 175.046 214.563 174.912 214.85C174.779 215.137 174.589 215.36 174.342 215.52C174.102 215.68 173.819 215.76 173.492 215.76ZM173.492 215.19C173.799 215.19 174.039 215.073 174.212 214.84C174.386 214.6 174.472 214.27 174.472 213.85C174.472 213.43 174.386 213.103 174.212 212.87C174.039 212.63 173.799 212.51 173.492 212.51C173.192 212.51 172.952 212.63 172.772 212.87C172.599 213.103 172.512 213.43 172.512 213.85C172.512 214.263 172.599 214.59 172.772 214.83C172.952 215.07 173.192 215.19 173.492 215.19ZM177.922 219.06C177.602 219.06 177.319 218.98 177.072 218.82C176.826 218.66 176.636 218.437 176.502 218.15C176.369 217.863 176.302 217.53 176.302 217.15C176.302 216.77 176.369 216.437 176.502 216.15C176.636 215.863 176.826 215.64 177.072 215.48C177.319 215.32 177.602 215.24 177.922 215.24C178.249 215.24 178.532 215.32 178.772 215.48C179.019 215.64 179.209 215.863 179.342 216.15C179.482 216.437 179.552 216.77 179.552 217.15C179.552 217.53 179.482 217.863 179.342 218.15C179.209 218.437 179.019 218.66 178.772 218.82C178.532 218.98 178.249 219.06 177.922 219.06ZM177.922 218.49C178.222 218.49 178.459 218.373 178.632 218.14C178.812 217.9 178.902 217.57 178.902 217.15C178.902 216.737 178.812 216.41 178.632 216.17C178.459 215.93 178.222 215.81 177.922 215.81C177.622 215.81 177.382 215.93 177.202 216.17C177.029 216.403 176.942 216.73 176.942 217.15C176.942 217.57 177.029 217.9 177.202 218.14C177.382 218.373 177.622 218.49 177.922 218.49Z"
    fill="black" />
  <path
    d="M231.273 219V212.4L231.703 212.87H229.693V212H232.263V219H231.273ZM236.054 219.08C235.561 219.08 235.081 219.003 234.614 218.85C234.154 218.697 233.778 218.49 233.484 218.23L233.944 217.44C234.178 217.66 234.481 217.84 234.854 217.98C235.228 218.12 235.624 218.19 236.044 218.19C236.578 218.19 236.988 218.077 237.274 217.85C237.561 217.623 237.704 217.32 237.704 216.94C237.704 216.68 237.641 216.453 237.514 216.26C237.388 216.067 237.168 215.92 236.854 215.82C236.548 215.713 236.124 215.66 235.584 215.66H233.994L234.364 212H238.314V212.87H234.734L235.254 212.38L234.964 215.27L234.444 214.79H235.794C236.494 214.79 237.058 214.88 237.484 215.06C237.911 215.24 238.221 215.49 238.414 215.81C238.608 216.123 238.704 216.487 238.704 216.9C238.704 217.3 238.608 217.667 238.414 218C238.221 218.327 237.928 218.59 237.534 218.79C237.148 218.983 236.654 219.08 236.054 219.08ZM240.399 219L245.179 212H245.949L241.169 219H240.399ZM240.959 215.76C240.639 215.76 240.356 215.68 240.109 215.52C239.862 215.36 239.669 215.137 239.529 214.85C239.396 214.563 239.329 214.23 239.329 213.85C239.329 213.47 239.396 213.137 239.529 212.85C239.669 212.563 239.862 212.34 240.109 212.18C240.356 212.02 240.639 211.94 240.959 211.94C241.286 211.94 241.569 212.02 241.809 212.18C242.056 212.34 242.246 212.563 242.379 212.85C242.512 213.137 242.579 213.47 242.579 213.85C242.579 214.23 242.512 214.563 242.379 214.85C242.246 215.137 242.056 215.36 241.809 215.52C241.569 215.68 241.286 215.76 240.959 215.76ZM240.959 215.19C241.266 215.19 241.506 215.073 241.679 214.84C241.852 214.6 241.939 214.27 241.939 213.85C241.939 213.43 241.852 213.103 241.679 212.87C241.506 212.63 241.266 212.51 240.959 212.51C240.659 212.51 240.419 212.63 240.239 212.87C240.066 213.103 239.979 213.43 239.979 213.85C239.979 214.263 240.066 214.59 240.239 214.83C240.419 215.07 240.659 215.19 240.959 215.19ZM245.389 219.06C245.069 219.06 244.786 218.98 244.539 218.82C244.292 218.66 244.102 218.437 243.969 218.15C243.836 217.863 243.769 217.53 243.769 217.15C243.769 216.77 243.836 216.437 243.969 216.15C244.102 215.863 244.292 215.64 244.539 215.48C244.786 215.32 245.069 215.24 245.389 215.24C245.716 215.24 245.999 215.32 246.239 215.48C246.486 215.64 246.676 215.863 246.809 216.15C246.949 216.437 247.019 216.77 247.019 217.15C247.019 217.53 246.949 217.863 246.809 218.15C246.676 218.437 246.486 218.66 246.239 218.82C245.999 218.98 245.716 219.06 245.389 219.06ZM245.389 218.49C245.689 218.49 245.926 218.373 246.099 218.14C246.279 217.9 246.369 217.57 246.369 217.15C246.369 216.737 246.279 216.41 246.099 216.17C245.926 215.93 245.689 215.81 245.389 215.81C245.089 215.81 244.849 215.93 244.669 216.17C244.496 216.403 244.409 216.73 244.409 217.15C244.409 217.57 244.496 217.9 244.669 218.14C244.849 218.373 245.089 218.49 245.389 218.49Z"
    fill="black" />
  <rect x="216.75" y="177.75" width="43.5" height="24.5" rx="12.25" stroke="#37072A"
    stroke-width="1.5" />
  <path
    d="M229.203 195V185.76L229.805 186.418H226.991V185.2H230.589V195H229.203ZM236.618 191.738V190.576H240.384V191.738H236.618ZM247.263 195V185.76L247.865 186.418H245.051V185.2H248.649V195H247.263Z"
    fill="black" />
  <defs>
    <clipPath id="clip0_65_8804">
      <rect x="291.5" y="69" width="52" height="52" rx="26" fill="white" />
    </clipPath>
  </defs>
</svg>