<svg width="160" height="40" viewBox="0 0 160 40" fill="none" xmlns="http://www.w3.org/2000/svg">
  <path
    d="M9.79687 4.66947C9.79687 5.97228 9.34177 7.0687 8.44459 7.99743C7.53441 8.91327 6.44219 9.37764 5.14193 9.37764C3.84167 9.37764 2.74945 8.91327 1.85227 7.99743C0.955091 7.0687 0.5 5.97228 0.5 4.68237C0.5 3.39246 0.955091 2.29604 1.85227 1.3802C2.74945 0.464367 3.84167 0 5.14193 0C6.44219 0 7.53441 0.464367 8.44459 1.3802C9.35478 2.29604 9.79687 3.40536 9.79687 4.68237V4.66947Z"
    fill="#FFFFFF" />
  <path
    d="M28.6117 4.66947C28.6117 5.97228 28.1566 7.0687 27.2594 7.99743C26.3492 8.91327 25.257 9.37764 23.9567 9.37764C22.6565 9.37764 21.5643 8.91327 20.6671 7.99743C19.7699 7.0816 19.3148 5.97228 19.3148 4.68237C19.3148 3.39246 19.7699 2.29604 20.6671 1.3802C21.5643 0.464367 22.6565 0 23.9567 0C25.257 0 26.3492 0.464367 27.2594 1.3802C28.1696 2.29604 28.6117 3.40536 28.6117 4.68237V4.66947Z"
    fill="#FFFFFF" />
  <path
    d="M27.8706 38.8523C27.8706 39.1232 27.8055 39.3038 27.6885 39.3682C27.6365 39.4069 27.4545 39.4456 27.1294 39.4714C26.3232 39.5488 25.192 39.5875 23.7227 39.5875C21.6423 39.5875 20.4331 39.5488 20.069 39.4714C19.7049 39.394 19.5229 39.2135 19.5229 38.9426C19.5229 37.9107 19.5749 36.3499 19.6659 34.2731C19.7699 32.1964 19.8089 30.6356 19.8089 29.6036C19.8089 28.5717 19.6659 28.791 19.3668 28.7136C18.9118 28.6104 17.3124 28.5588 14.5689 28.5588C11.8253 28.5588 10.2 28.6104 9.73191 28.7136C9.44585 28.7781 9.28982 29.0748 9.28982 29.6036C9.28982 30.6227 9.31583 32.1577 9.39384 34.1957C9.45886 36.2338 9.49786 37.7688 9.49786 38.7878C9.49786 39.8068 9.31583 39.4069 8.96476 39.4714C8.53567 39.5488 7.30042 39.5875 5.23301 39.5875C3.16559 39.5875 2.30742 39.5488 1.82633 39.4714C1.43625 39.4069 1.25421 39.2006 1.25421 38.8652C1.25421 37.4463 1.31922 35.3179 1.46225 32.4543C1.60528 29.5907 1.67029 27.4495 1.67029 26.0177C1.67029 24.5859 1.60528 22.2125 1.47526 19.1683C1.34523 16.1241 1.28022 13.841 1.28022 12.3189C1.28022 10.7968 1.42324 11.8803 1.6963 11.8803C2.09938 11.8803 2.72351 11.9061 3.55567 11.9448C4.37484 11.9835 4.99896 12.0093 5.41505 12.0093C5.83113 12.0093 6.48126 11.9835 7.32643 11.9448C8.1846 11.9061 8.82173 11.8803 9.23781 11.8803C9.6539 11.8803 9.57588 11.9964 9.57588 12.2286C9.57588 13.2089 9.49787 14.6794 9.35484 16.6401C9.21181 18.6007 9.13379 20.0712 9.13379 21.0515C9.13379 22.0319 9.26382 21.7739 9.51087 21.8642C9.84894 21.9674 11.5393 22.019 14.5819 22.019C17.6245 22.019 19.0548 21.9674 19.4969 21.8642C19.8089 21.7868 19.978 21.5159 19.978 21.0515C19.978 20.1099 19.926 18.6781 19.8349 16.769C19.7439 14.86 19.6919 13.4282 19.6919 12.4736C19.6919 11.5191 19.8609 11.8674 20.186 11.8674C20.5111 11.8674 21.1482 11.8932 21.9414 11.9319C22.7215 11.9706 23.3196 11.9964 23.7097 11.9964C24.0998 11.9964 24.6719 11.9706 25.4651 11.9319C26.2452 11.8932 26.8433 11.8674 27.2334 11.8674C27.6235 11.8674 27.8055 12.0222 27.8055 12.3447C27.8055 13.8539 27.7405 16.1241 27.6235 19.1683C27.4935 22.2125 27.4415 24.4956 27.4415 26.0177C27.4415 27.5398 27.5065 29.5907 27.6495 32.4543C27.7925 35.3179 27.8575 37.4463 27.8575 38.8652L27.8706 38.8523Z"
    fill="#FFFFFF" />
  <path
    d="M55.189 29.8097C55.189 33.1506 54.7859 35.4337 53.9797 36.6591C52.4974 38.8907 48.8047 40 42.9015 40C36.9983 40 38.1816 39.7936 36.7383 39.3937C34.4368 38.7359 32.9415 37.4847 32.2524 35.6401C31.9143 34.7372 31.7323 33.1248 31.7323 30.8029C31.7323 28.4811 31.7583 29.4614 31.7973 28.4037C31.8363 27.346 31.8623 26.5462 31.8623 26.0303C31.8623 24.5082 31.7843 22.2251 31.6412 19.1809C31.4982 16.1367 31.4202 13.8664 31.4202 12.3572C31.4202 10.8481 31.5632 11.88 31.8363 11.88C32.6424 11.88 33.8647 11.9187 35.49 11.9832C37.1283 12.0477 38.3376 12.0864 39.1438 12.0864C39.9499 12.0864 39.6378 12.2283 39.6378 12.5249C39.6378 14.2534 39.5858 16.8461 39.4688 20.3031C39.3518 23.76 39.2998 26.3528 39.2998 28.0812C39.2998 29.8097 39.5208 31.5253 39.9499 32.2476C40.535 33.228 41.7443 33.7181 43.6036 33.7181C46.3082 33.7181 47.6735 32.4153 47.6735 29.8097C47.6735 27.2041 47.6215 25.0628 47.5304 21.2576C47.4394 17.4524 47.3874 14.6017 47.3874 12.7055C47.3874 10.8094 47.5564 12.0993 47.8815 12.0993C48.6617 12.0993 49.8319 12.0735 51.4052 11.9961C52.9785 11.9316 54.1488 11.8929 54.9289 11.8929C55.7091 11.8929 55.501 12.0477 55.501 12.3701C55.501 13.8793 55.436 16.1496 55.319 19.1938C55.189 22.2379 55.137 24.5211 55.137 26.0432C55.137 27.5653 55.137 27.1009 55.163 27.9393C55.163 28.7907 55.189 29.4227 55.189 29.8355V29.8097Z"
    fill="#FFFFFF" />
  <path
    d="M84.9651 25.5273C84.9651 29.3841 83.7169 32.725 81.2204 35.5499C79.0099 38.0781 75.9153 39.4067 71.9235 39.5357C71.1563 39.5615 69.0499 39.5744 65.6042 39.5744C62.1585 39.5744 63.9789 39.5486 62.6786 39.5099C61.3784 39.4712 60.4032 39.4454 59.753 39.4454C59.1029 39.4454 59.1809 39.2906 59.1809 38.9939C59.1809 37.5492 59.2329 35.3822 59.35 32.4928C59.467 29.6034 59.519 27.4364 59.519 25.9917C59.519 24.547 59.467 22.2251 59.35 19.2196C59.2329 16.2142 59.1809 13.9568 59.1809 12.4605C59.1809 10.9642 59.376 12.022 59.753 11.9704C60.6892 11.8672 62.2365 11.8156 64.369 11.8156C68.4388 11.8156 71.0783 11.8801 72.2746 11.9962C75.4082 12.3057 77.8527 13.0926 79.634 14.3567C81.2984 15.5305 82.6116 17.1945 83.5738 19.3099C84.497 21.3093 84.9651 23.3861 84.9651 25.5015V25.5273ZM77.3716 25.5273C77.3716 23.3087 76.7085 21.5028 75.3692 20.0968C74.0169 18.6392 72.2356 17.9168 70.0121 17.9168C67.7887 17.9168 66.9565 18.1877 66.9565 18.7295C66.9565 19.5034 66.9435 20.6643 66.9175 22.2251C66.8915 23.773 66.8785 24.9468 66.8785 25.7208C66.8785 26.4947 66.8785 27.6298 66.9175 29.1519C66.9435 30.674 66.9565 31.8349 66.9565 32.6089C66.9565 33.3828 68.0097 33.4602 70.1291 33.4602C72.2486 33.4602 74.212 32.7121 75.5252 31.2029C76.7605 29.7711 77.3716 27.8878 77.3716 25.5531V25.5273Z"
    fill="#FFFFFF" />
  <path
    d="M113.909 25.5273C113.909 29.3841 112.661 32.725 110.164 35.5499C107.954 38.0781 104.859 39.4067 100.867 39.5357C100.1 39.5615 97.9936 39.5744 94.5479 39.5744C91.1022 39.5744 92.9226 39.5486 91.6223 39.5099C90.3221 39.4712 89.3469 39.4454 88.6967 39.4454C88.0466 39.4454 88.1246 39.2906 88.1246 38.9939C88.1246 37.5492 88.1766 35.3822 88.2937 32.4928C88.4107 29.6034 88.4627 27.4364 88.4627 25.9917C88.4627 24.547 88.4107 22.2251 88.2937 19.2196C88.1766 16.2142 88.1246 13.9568 88.1246 12.4605C88.1246 10.9642 88.3197 12.022 88.6967 11.9704C89.6329 11.8672 91.1802 11.8156 93.3127 11.8156C97.3825 11.8156 100.022 11.8801 101.218 11.9962C104.352 12.3057 106.796 13.0926 108.578 14.3567C110.242 15.5305 111.555 17.1945 112.518 19.3099C113.441 21.3093 113.909 23.3861 113.909 25.5015V25.5273ZM106.315 25.5273C106.315 23.3087 105.652 21.5028 104.313 20.0968C102.961 18.6392 101.179 17.9168 98.9558 17.9168C96.7324 17.9168 95.9002 18.1877 95.9002 18.7295C95.9002 19.5034 95.8872 20.6643 95.8612 22.2251C95.8352 23.773 95.8222 24.9468 95.8222 25.7208C95.8222 26.4947 95.8222 27.6298 95.8612 29.1519C95.8872 30.674 95.9002 31.8349 95.9002 32.6089C95.9002 33.3828 96.9534 33.4602 99.0728 33.4602C101.192 33.4602 103.156 32.7121 104.469 31.2029C105.704 29.7711 106.315 27.8878 106.315 25.5531V25.5273Z"
    fill="#FFFFFF" />
  <path
    d="M135.194 39.7938C134.063 39.7938 132.581 39.768 130.76 39.7164C128.381 39.6648 126.898 39.6261 126.326 39.6132L120.397 39.5358C119.799 39.5487 118.954 39.5229 117.836 39.4584C117.446 39.394 117.264 39.1876 117.264 38.8522C117.264 37.4204 117.29 35.2791 117.329 32.4284C117.381 29.5777 117.394 27.4365 117.394 26.0047C117.394 24.5729 117.342 22.2124 117.251 19.1682C117.159 16.1369 117.107 13.8538 117.107 12.3317C117.107 10.8096 117.303 11.8931 117.706 11.8931C118.109 11.8931 118.694 11.9189 119.474 11.9576C120.254 11.9963 120.839 12.0221 121.229 12.0221C121.619 12.0221 122.309 11.9963 123.167 11.9576C124.025 11.906 124.675 11.8931 125.104 11.8931C125.533 11.8931 125.39 12.0221 125.377 12.2672L125.351 12.5252C125.195 14.9889 125.013 18.6909 124.818 23.6313L124.792 28.8167C124.792 30.4936 124.792 31.719 124.818 32.4929L124.857 32.9702C124.87 33.125 124.974 33.2282 125.156 33.2669H125.676C126.859 33.2669 128.641 33.2024 131.02 33.0863C133.387 32.9573 135.168 32.9057 136.364 32.9057C137.561 32.9057 136.897 33.0605 136.897 33.3572C136.897 35.6016 136.728 37.5365 136.403 39.1618C136.338 39.4971 136.195 39.7035 135.987 39.768C135.922 39.7938 135.649 39.8067 135.168 39.8067L135.194 39.7938Z"
    fill="#FFFFFF" />
  <path
    d="M159.47 33.3441C159.47 33.9117 159.353 34.9436 159.132 36.4528C158.898 38.091 158.677 39.0713 158.495 39.3809C158.339 39.626 158.118 39.755 157.845 39.755C157.572 39.755 157.533 39.7292 157.246 39.6905C156.284 39.5615 153.463 39.497 148.808 39.497C144.153 39.497 146.272 39.497 144.27 39.4712C142.267 39.4454 140.759 39.4454 139.745 39.4454C138.731 39.4454 139.095 39.2519 139.095 38.8778C139.095 37.4073 139.173 35.2016 139.342 32.2606C139.511 29.3196 139.589 27.1139 139.589 25.6434C139.589 24.1729 139.511 21.3609 139.355 17.2848C139.316 16.2399 139.238 14.6663 139.134 12.5895L139.108 12.3186C139.082 12.0219 139.251 11.8671 139.602 11.8671C140.577 11.8671 142.046 11.8929 144.01 11.9445C145.973 11.9961 147.443 12.0219 148.418 12.0219C149.393 12.0219 150.836 11.9961 152.774 11.9445C154.711 11.8929 156.167 11.8671 157.129 11.8671C158.092 11.8671 158.209 12.1251 158.313 12.6282C158.378 12.9249 158.482 13.8407 158.625 15.3757C158.768 16.8978 158.833 17.8265 158.833 18.1619C158.833 18.4973 158.703 18.5747 158.443 18.5747C158.183 18.5747 158.222 18.5747 158.027 18.5489C154.516 18.2651 151.356 18.1103 148.548 18.1103C145.739 18.1103 147.416 18.278 147.26 18.6005C147.195 18.7553 147.156 19.2583 147.156 20.1097C147.156 20.961 147.286 21.5931 147.547 21.8768C147.768 22.1219 148.197 22.2509 148.834 22.2509C149.471 22.2509 149.224 22.2509 149.601 22.2251C149.978 22.1993 150.303 22.1993 150.55 22.1993C152.214 22.1993 153.905 22.1477 155.608 22.0574C155.751 22.0574 156.115 22.0058 156.7 21.9542C157.155 21.9026 157.507 21.8768 157.767 21.8768C158.027 21.8768 158.248 22.0316 158.248 22.3283C158.248 22.0574 158.131 23.0507 157.897 25.3338C157.793 26.3786 157.741 27.4363 157.741 28.4812C157.741 29.526 157.546 28.8681 157.168 28.8681L155.387 28.6747C154.633 28.5973 152.917 28.5586 150.238 28.5586H148.132C147.586 28.5586 147.273 28.6876 147.182 28.9455C147.169 29.01 147.156 29.4228 147.156 30.171C147.156 30.9191 147.221 31.8091 147.351 32.0929C147.573 32.596 148.418 32.8927 149.887 32.983C149.861 32.983 150.823 32.983 152.787 32.983C154.75 32.983 154.529 32.9185 155.907 32.8024C157.285 32.6734 158.326 32.6218 159.015 32.6218C159.704 32.6218 159.457 32.854 159.457 33.3312L159.47 33.3441Z"
    fill="#FFFFFF" />
</svg>